# Blender v3.1.2 OBJ File: 'Meatcan.blend'
# www.blender.org
mtllib Meatcan.mtl
o Can_Cylinder
v 0.000000 -0.040000 -0.105000
v 0.000000 0.040000 -0.093806
v 0.090933 -0.040000 -0.052500
v 0.081238 0.040000 -0.046903
v 0.090933 -0.040000 0.052500
v 0.081238 0.040000 0.046903
v -0.000000 -0.040000 0.105000
v -0.000000 0.040000 0.093806
v -0.090933 -0.040000 0.052500
v -0.081238 0.040000 0.046903
v -0.090933 -0.040000 -0.052500
v -0.081238 0.040000 -0.046903
v 0.090933 0.040000 -0.052500
v 0.000000 0.040000 -0.105000
v 0.090933 0.040000 0.052500
v -0.000000 0.040000 0.105000
v -0.090933 0.040000 0.052500
v -0.090933 0.040000 -0.052500
v 0.082824 0.116889 -0.093806
v 0.081913 0.038188 -0.046903
v 0.081913 0.038188 0.046903
v 0.082824 0.116889 0.093806
v 0.132464 0.177408 0.046903
v 0.132464 0.177408 -0.046903
v 0.081238 -0.035698 -0.046903
v 0.000000 -0.035698 -0.093806
v 0.081238 -0.035698 0.046903
v -0.000000 -0.035698 0.093806
v -0.081238 -0.035698 0.046903
v -0.081238 -0.035698 -0.046903
v 0.102849 0.149608 -0.070355
v 0.073596 0.077332 -0.070355
v 0.102849 0.149608 0.070355
v 0.073596 0.077332 0.070355
vt 0.248641 0.833242
vt 0.125076 0.833242
vt 0.125076 0.666621
vt 0.248641 0.666621
vt 0.125076 0.500000
vt 0.248641 0.500000
vt 0.125076 0.333379
vt 0.248641 0.333379
vt 0.125076 0.166758
vt 0.248641 0.166758
vt 0.109385 0.009019
vt 0.109385 0.157876
vt 0.000138 0.157876
vt 0.000138 0.009019
vt 0.125076 0.000137
vt 0.248642 0.000138
vt 0.248642 0.999862
vt 0.125076 0.999863
vt 0.391461 0.333379
vt 0.250854 0.250069
vt 0.250854 0.083448
vt 0.391461 0.000137
vt 0.531091 0.083448
vt 0.531091 0.250069
vt 0.109385 0.824360
vt 0.109385 0.675502
vt 0.109385 0.657739
vt 0.109385 0.508881
vt 0.109385 0.491118
vt 0.109385 0.342261
vt 0.109385 0.324497
vt 0.109385 0.175640
vt 0.109385 0.990981
vt 0.109385 0.842123
vt 0.531266 0.076061
vt 0.593501 0.038782
vt 0.593727 0.262069
vt 0.531417 0.224918
vt 0.375254 0.343673
vt 0.501301 0.418102
vt 0.501301 0.566960
vt 0.375101 0.627854
vt 0.250854 0.566960
vt 0.250854 0.418102
vt 0.000138 0.491118
vt 0.000138 0.342261
vt 0.000138 0.824360
vt 0.000137 0.675502
vt 0.000137 0.990981
vt 0.000137 0.842123
vt 0.000138 0.324497
vt 0.000138 0.175640
vt 0.000138 0.657739
vt 0.000138 0.508881
vt 0.656299 0.000189
vt 0.717231 0.038657
vt 0.717457 0.261943
vt 0.656604 0.300532
vt 0.780803 0.075806
vt 0.780954 0.224663
vn 0.5000 0.0000 -0.8660
vn 1.0000 0.0000 0.0000
vn 0.5000 0.0000 0.8660
vn -0.5000 0.0000 0.8660
vn -1.0000 0.0000 0.0000
vn -0.5000 0.0000 -0.8660
vn 0.0000 -1.0000 -0.0000
vn 0.0000 1.0000 0.0000
vn 0.9782 0.2078 -0.0000
vn 0.9270 -0.3752 -0.0000
vn 0.6844 -0.7291 0.0000
g Can_Cylinder_Can
usemtl Can
s off
f 1/1/1 14/2/1 13/3/1 3/4/1
f 3/4/2 13/3/2 15/5/2 5/6/2
f 5/6/3 15/5/3 16/7/3 7/8/3
f 7/8/4 16/7/4 17/9/4 9/10/4
f 12/11/2 10/12/2 29/13/2 30/14/2
f 9/10/5 17/9/5 18/15/5 11/16/5
f 11/17/6 18/18/6 14/2/6 1/1/6
f 1/19/7 3/20/7 5/21/7 7/22/7 9/23/7 11/24/7
f 2/25/8 4/26/8 13/3/8 14/2/8
f 4/27/8 6/28/8 15/5/8 13/3/8
f 6/29/8 8/30/8 16/7/8 15/5/8
f 8/31/8 10/32/8 17/9/8 16/7/8
f 10/12/8 12/11/8 18/15/8 17/9/8
f 12/33/8 2/34/8 14/2/8 18/18/8
f 20/35/9 32/36/9 34/37/9 21/38/9
f 25/39/8 26/40/8 30/41/8 29/42/8 28/43/8 27/44/8
f 8/30/6 6/29/6 27/45/6 28/46/6
f 4/26/4 2/25/4 26/47/4 25/48/4
f 2/34/3 12/33/3 30/49/3 26/50/3
f 10/32/1 8/31/1 28/51/1 29/52/1
f 6/28/5 4/27/5 25/53/5 27/54/5
f 34/37/10 32/36/10 19/55/10 31/56/10 33/57/10 22/58/10
f 33/57/11 31/56/11 24/59/11 23/60/11
